<?xml version="1.0" encoding="utf-8"?>
<!-- Generator: Adobe Illustrator 19.0.0, SVG Export Plug-In . SVG Version: 6.00 Build 0)  -->
<svg version="1.1" id="Layer_1" xmlns="http://www.w3.org/2000/svg" xmlns:xlink="http://www.w3.org/1999/xlink" x="0px" y="0px"
	 viewBox="0 0 1190.6 841.9" style="enable-background:new 0 0 1190.6 841.9;" xml:space="preserve">
<style type="text/css">
	.st0{fill:#FFFFFF;}
	.st1{fill:url(#XMLID_2_);}
	.st2{fill:url(#XMLID_3_);}
</style>
<g id="XMLID_153_">
	<path id="XMLID_5_" class="st0" d="M154.8,278.3c-24.2,0-46.1,5.5-65.8,16.5c-19.7,11-35.2,26.3-46.4,46
		c-11.2,19.7-16.9,42-16.9,66.9c0,8.7,0.7,17,2.1,25h53c-1.9-7.8-2.8-16.1-2.8-25c0-16.4,3.3-30.9,9.8-43.5
		c6.5-12.5,15.6-22.2,27.2-29c11.6-6.8,24.9-10.1,39.9-10.1c0.6,0,1.2,0,1.7,0.1v-46.8C155.9,278.3,155.3,278.3,154.8,278.3z
		 M156.8,394v38.8h71.9c-3.9,18.4-11.9,32.7-24.3,43c-12.3,10.3-28.2,15.4-47.5,15.4h-0.5v45.7c21.2-0.2,40.4-4.7,57.6-13.6
		c17.5-9.1,31.8-21.1,43-36.1c11.1-15,18.4-31.3,21.8-49V394H156.8z"/>
	<path id="XMLID_6_" class="st0" d="M506.2,333.8v200.9h-51.1v-9.3c0-3.8-4.2-6.2-7.4-4.1c-5.2,3.4-11.2,5.3-18.2,8.5
		c-10.5,5-21.9,7.4-34.3,7.4c-15.7,0-29.6-3.3-41.7-10c-12.1-6.7-21.6-16.4-28.5-29.4c-6.9-12.9-10.3-28.4-10.3-46.2V333.8h50.8
		v110.6c0,16,4,28.2,12,36.8c8,8.6,18.9,12.9,32.6,12.9c14,0,25-4.3,33-12.9c8-8.6,12-20.9,12-36.8V333.8H506.2z"/>
	<path id="XMLID_11_" class="st0" d="M756.9,379.5c8.1-15.7,19.2-27.8,33.2-36.3c14-8.5,29.6-12.7,46.8-12.7
		c13.1,0,25.5,2.8,37.4,8.5c11.8,5.7,21.3,13.2,28.3,22.7v-95.4h51.5v268.4h-51.5l0,0c0-9.9-11-15.7-19.1-10.2
		c-2.3,1.6-4.8,3-7.3,4.4c-11.4,6-24.5,9.1-39.5,9.1c-16.9,0-32.4-4.4-46.4-13.1c-14-8.7-25.1-21-33.2-36.8
		c-8.1-15.8-12.2-34-12.2-54.6C744.8,413.2,748.8,395.2,756.9,379.5z M895.7,402.5c-4.8-8.8-11.4-15.6-19.6-20.3
		c-8.2-4.7-17.1-7.1-26.5-7.1c-9.4,0-18.1,2.3-26.1,6.9c-8,4.6-14.5,11.3-19.4,20.1c-5,8.8-7.4,19.3-7.4,31.4
		c0,12.1,2.5,22.7,7.4,31.7c4.9,9.1,11.5,16,19.6,20.9c8.1,4.8,16.7,7.3,25.9,7.3c9.4,0,18.3-2.4,26.5-7.1
		c8.2-4.7,14.7-11.5,19.6-20.3c4.8-8.8,7.3-19.4,7.3-31.7C902.9,421.9,900.5,411.3,895.7,402.5z"/>
	<path id="XMLID_14_" class="st0" d="M1189.1,449.5h-146.9c1.2,14.5,6.3,25.9,15.2,34.1c8.9,8.2,19.9,12.3,33,12.3
		c18.9,0,32.3-8.1,40.3-24.3h54.8c-5.8,19.3-16.9,35.2-33.4,47.7c-16.4,12.5-36.6,18.7-60.6,18.7c-19.3,0-36.7-4.3-52-12.9
		c-15.4-8.6-27.3-20.7-35.9-36.4c-8.6-15.7-12.9-33.9-12.9-54.4c0-20.8,4.2-39,12.7-54.8c8.5-15.7,20.3-27.8,35.5-36.3
		c15.2-8.5,32.8-12.7,52.6-12.7c19.1,0,36.2,4.1,51.3,12.3c15.1,8.2,26.8,19.9,35.2,35c8.3,15.1,12.5,32.5,12.5,52.1
		C1190.6,437.1,1190.1,443.7,1189.1,449.5z M1138,415.4c-0.2-13.1-5-23.5-14.1-31.4c-9.2-7.9-20.4-11.8-33.7-11.8
		c-12.6,0-23.2,3.8-31.7,11.4c-8.6,7.6-13.8,18.2-15.8,31.7H1138z"/>
	<linearGradient id="XMLID_2_" gradientUnits="userSpaceOnUse" x1="534.7798" y1="340.8335" x2="632.8513" y2="340.8335">
		<stop  offset="0" style="stop-color:#00C898"/>
		<stop  offset="0.4877" style="stop-color:#2BB092"/>
		<stop  offset="1" style="stop-color:#00828C"/>
	</linearGradient>
	<path id="XMLID_17_" class="st1" d="M613.1,314.9c-1.2,1.4-2.4,2.7-3.7,3.9c-7.6,7.3-17.9,11.9-31.9,13.3l-21.9,3.9v55.5h53.8h15.3
		V290.3C622.4,299.8,618.7,308.2,613.1,314.9z"/>
	<linearGradient id="XMLID_3_" gradientUnits="userSpaceOnUse" x1="658.2896" y1="543.1265" x2="658.2896" y2="278.2762">
		<stop  offset="0" style="stop-color:#00C898"/>
		<stop  offset="0.4877" style="stop-color:#2BB092"/>
		<stop  offset="1" style="stop-color:#00828C"/>
	</linearGradient>
	<polygon id="XMLID_135_" class="st2" points="624.8,278.3 624.8,533.8 624.8,543.1 641.4,543.1 691.8,543.1 691.8,487.6 
		691.8,453.2 691.8,278.3 	"/>
</g>
</svg>
