<?xml version="1.0" encoding="utf-8"?>
<!-- Generator: Adobe Illustrator 19.0.0, SVG Export Plug-In . SVG Version: 6.00 Build 0)  -->
<svg version="1.1" id="Layer_1" xmlns="http://www.w3.org/2000/svg" xmlns:xlink="http://www.w3.org/1999/xlink" x="0px" y="0px"
	 viewBox="0 0 1200 1200" style="enable-background:new 0 0 1200 1200;" xml:space="preserve">
<style type="text/css">
	.st0{display:none;fill:url(#XMLID_3_);}
	.st1{fill:#FFFFFF;}
	.st2{fill:url(#XMLID_4_);}
	.st3{fill:url(#XMLID_5_);}
</style>
<linearGradient id="XMLID_3_" gradientUnits="userSpaceOnUse" x1="149.6805" y1="149.6805" x2="1050.3196" y2="1050.3196">
	<stop  offset="0" style="stop-color:#292D36"/>
	<stop  offset="1" style="stop-color:#12161C"/>
</linearGradient>
<path id="XMLID_18_" class="st0" d="M839.3,1137.7H360.7c-164.8,0-298.4-133.6-298.4-298.4V360.7c0-164.8,133.6-298.4,298.4-298.4
	h478.6c164.8,0,298.4,133.6,298.4,298.4v478.6C1137.7,1004.1,1004.1,1137.7,839.3,1137.7z"/>
<g id="XMLID_2_">
	<path id="XMLID_137_" class="st1" d="M598.5,252.3v125c-36.7,1.1-69.4,10.1-98.1,26.9c-31.1,18-55.3,43.8-72.6,77.4
		c-17.5,33.5-26.2,72.2-26.2,116.1c0,23.8,2.4,46.1,7.4,66.7H267.7c-3.6-21.4-5.5-43.6-5.5-66.7c0-66.5,15.1-126,45-178.7
		c30-52.6,71.4-93.6,123.9-122.9C481.4,268.2,537.2,253.5,598.5,252.3z"/>
	<linearGradient id="XMLID_4_" gradientUnits="userSpaceOnUse" x1="593.2784" y1="570.1561" x2="808.4743" y2="570.1561">
		<stop  offset="0" style="stop-color:#00C898"/>
		<stop  offset="0.4877" style="stop-color:#2BB092"/>
		<stop  offset="1" style="stop-color:#00828C"/>
	</linearGradient>
	<path id="XMLID_34_" class="st2" d="M765.2,521.7c-2.6,2.6-5.2,5-8.1,7.3c-16.7,13.6-39.3,22.2-69.9,24.7l-48.1,7.3v103.5h118h33.6
		V475.9C785.5,493.6,777.3,509.2,765.2,521.7z"/>
	<path id="XMLID_26_" class="st1" d="M757.2,745.3c-8.9,12.8-19.2,24.1-31.2,34c-32.9,27.4-61.7,41.1-113.3,41.1
		c-4.8,0-9.5-0.1-14.1-0.4v122.2c58.6,1.2,111.4-9.4,158.6-32.1c2.7-1.3,5.4-2.7,7.9-4c8.9-4.6,17.5-9.4,25.7-14.8V664.5
		C784.2,695.8,773,722.7,757.2,745.3z"/>
	<linearGradient id="XMLID_5_" gradientUnits="userSpaceOnUse" x1="864.293" y1="947.7078" x2="864.293" y2="453.4017">
		<stop  offset="0" style="stop-color:#00C898"/>
		<stop  offset="0.4877" style="stop-color:#2BB092"/>
		<stop  offset="1" style="stop-color:#00828C"/>
	</linearGradient>
	<polygon id="XMLID_25_" class="st3" points="790.8,453.4 790.8,930.2 790.8,947.7 827.2,947.7 937.8,947.7 937.8,844.1 
		937.8,779.9 937.8,453.4 	"/>
</g>
</svg>
